:SAMPLES-PER-SECOND 30
:FULLY-SPECIFIED
:DEGREES
309
root  68.1868 35.466 -29.0965 39.0658 6.15384 -0.312836
RightUpLeg  -75.7689 -13.5331 16.4399
RightLeg  46.1535 -5.57044 -6.50656
RightFoot  -8.54445 0.10682 -6.72207
RightToes  0.00048216 0.542163 -0.142577
Spine  75.0009 -4.63401 6.50917
Spine1  6.61041 1.27558 -4.25798
HEad  -49.4871 -5.40822 5.08774
LeftShoulder1  5.25266 -27.31 -9.5493
LeftArm  -101.936 -63.0933 36.9703
LeftForeArm  4.1034 -17.8212 -0.539199
LeftHand  -0.25398 0.0180481 5.50724
RightShoulder  1.15928 10.6145 -0.216567
RightArm  -90.0461 64.1805 -20.1803
RightForeArm  -16.2205 18.9901 3.97724
RightHand  -1.24028 10.6745 -9.44712
LeftUpLeg  -76.4882 14.8301 -20.6216
LeftLeg  44.3932 1.39735 1.87617
LeftFoot  -8.06418 -0.19369 8.46742
LeftToes  1.06244e-005 4.65854e-005 -8.18505e-006
310
root  68.3268 35.4467 -29.0247 39.0877 5.91571 -0.492371
RightUpLeg  -75.512 -12.84 15.5293
RightLeg  46.3194 -6.05177 -7.07364
RightFoot  -8.7083 0.0799829 -6.03144
RightToes  0.00048216 0.542163 -0.142577
Spine  75.1952 -4.6783 6.53199
Spine1  6.35139 1.10886 -4.41255
HEad  -49.6934 -5.24858 5.06203
LeftShoulder1  5.47339 -27.0266 -10.5257
LeftArm  -105.403 -63.8924 36.5688
LeftForeArm  6.05419 -19.4422 -1.84893
LeftHand  -0.25398 0.0180481 5.50724
RightShoulder  1.16479 10.6469 -0.192912
RightArm  -89.6751 63.7681 -20.3003
RightForeArm  -17.0298 19.7207 4.39524
RightHand  -1.27797 10.9789 -9.54839
LeftUpLeg  -76.332 14.9428 -21.0362
LeftLeg  44.2452 2.03119 2.52615
LeftFoot  -8.84816 -0.143005 9.00699
LeftToes  1.06244e-005 4.65854e-005 -8.18505e-006
311
root  68.4575 35.4555 -28.9907 39.1066 5.59111 -0.503632
RightUpLeg  -75.246 -12.2456 14.5415
RightLeg  46.2682 -6.5121 -7.56502
RightFoot  -8.69682 0.0681304 -5.4906
RightToes  0.00048216 0.542163 -0.142577
Spine  75.319 -4.82265 6.39816
Spine1  5.97315 0.832029 -4.79615
HEad  -49.8263 -5.06052 5.11312
LeftShoulder1  5.54332 -26.8472 -10.8986
LeftArm  -107.248 -64.2926 35.6688
LeftForeArm  7.13082 -20.3189 -2.53403
LeftHand  -0.25398 0.0180481 5.50724
RightShoulder  1.22242 11.0676 -0.015732
RightArm  -89.123 63.4041 -19.9948
RightForeArm  -17.6076 20.0969 4.60367
RightHand  -1.156 10.8922 -8.72562
LeftUpLeg  -76.0983 14.9833 -21.4681
LeftLeg  43.9627 2.50366 2.99079
LeftFoot  -9.34466 -0.108045 9.40133
LeftToes  1.06244e-005 4.65854e-005 -8.18505e-006
312
root  68.5697 35.4997 -28.9915 39.0279 5.21674 -0.50235
RightUpLeg  -74.8447 -11.7914 13.7314
RightLeg  45.9122 -6.85974 -7.84812
RightFoot  -8.51326 0.0692557 -5.13055
RightToes  0.00048216 0.542163 -0.142577
Spine  75.4123 -4.91651 6.32572
Spine1  5.71102 0.828502 -5.27515
HEad  -50.2044 -5.25323 5.19694
LeftShoulder1  5.5639 -27.2406 -10.716
LeftArm  -107.493 -64.1608 34.2303
LeftForeArm  7.71926 -20.8948 -2.98158
LeftHand  -0.25398 0.0180481 5.50724
RightShoulder  1.3442 11.3038 0.78058
RightArm  -88.3184 62.976 -19.9953
RightForeArm  -17.5777 20.7227 4.89777
RightHand  -0.892171 10.4455 -7.0384
LeftUpLeg  -75.9577 15.2436 -21.8946
LeftLeg  43.7814 2.43807 2.90609
LeftFoot  -9.23826 -0.119644 9.52872
LeftToes  1.06244e-005 4.65854e-005 -8.18505e-006
313
root  68.6746 35.5644 -29.0182 38.8249 4.76712 -0.61824
RightUpLeg  -74.324 -11.4327 13.2298
RightLeg  45.368 -7.01513 -7.86768
RightFoot  -8.19587 0.0792624 -4.89802
RightToes  0.00048216 0.542163 -0.142577
Spine  75.4044 -4.99306 6.65568
Spine1  5.50466 1.30538 -6.12173
HEad  -50.6317 -5.9853 5.56981
LeftShoulder1  5.55954 -28.3083 -10.0015
LeftArm  -106.69 -63.9992 31.7225
LeftForeArm  8.49194 -21.714 -3.58596
LeftHand  -0.25398 0.0180481 5.50724
RightShoulder  1.5466 10.941 2.61592
RightArm  -87.1576 62.4766 -20.414
RightForeArm  -17.5706 21.8133 5.34788
RightHand  -0.665927 10.0263 -5.51766
LeftUpLeg  -75.7912 15.7432 -22.3399
LeftLeg  43.5378 2.25447 2.69706
LeftFoot  -8.94989 -0.150232 9.75894
LeftToes  1.06244e-005 4.65854e-005 -8.18505e-006
314
root  68.7803 35.6442 -29.0643 38.5623 4.32861 -0.711411
RightUpLeg  -73.7637 -11.2954 12.9543
RightLeg  44.6803 -6.98534 -7.65445
RightFoot  -7.78938 0.100596 -4.93283
RightToes  0.00048216 0.542163 -0.142577
Spine  75.2347 -5.01237 6.6982
Spine1  5.43438 1.33416 -6.27125
HEad  -50.7892 -5.81815 5.52038
LeftShoulder1  5.83552 -28.1804 -11.0404
LeftArm  -105.645 -64.1694 30.6482
LeftForeArm  8.62215 -22.8115 -4.27205
LeftHand  -0.25398 0.0180481 5.50724
RightShoulder  1.62257 11.1785 3.0058
RightArm  -86.6811 62.0314 -19.4006
RightForeArm  -16.5912 23.1202 5.70811
RightHand  -0.445319 9.33156 -3.99905
LeftUpLeg  -75.3625 16.1228 -22.723
LeftLeg  42.9721 2.34549 2.73881
LeftFoot  -8.79926 -0.17265 10.1469
LeftToes  1.06244e-005 4.65854e-005 -8.18505e-006
315
root  68.8799 35.7608 -29.1331 38.2112 3.97551 -0.636688
RightUpLeg  -73.0802 -11.4507 12.73
RightLeg  43.7634 -6.85091 -7.28474
RightFoot  -7.23676 0.139382 -5.24408
RightToes  0.00048216 0.542163 -0.142577
Spine  75.0059 -5.09131 6.63604
Spine1  5.28894 1.14875 -6.1834
HEad  -50.4888 -5.46129 5.46261
LeftShoulder1  6.14058 -27.8109 -12.3714
LeftArm  -103.851 -64.3114 29.373
LeftForeArm  8.64475 -23.9411 -4.68518
LeftHand  -0.25398 0.0180481 5.50724
RightShoulder  1.72073 11.7016 3.32789
RightArm  -86.1602 61.6948 -18.3908
RightForeArm  -15.0316 24.0338 5.87063
RightHand  -0.173763 8.21128 -1.95479
LeftUpLeg  -74.5577 16.2928 -23.0162
LeftLeg  42.0064 2.51666 2.82135
LeftFoot  -8.54735 -0.203679 10.4365
LeftToes  1.06244e-005 4.65854e-005 -8.18505e-006
316
root  68.9694 35.9324 -29.2322 37.6072 3.68097 -0.462387
RightUpLeg  -72.0263 -11.7859 12.4277
RightLeg  42.5299 -6.66605 -6.8074
RightFoot  -6.51309 0.188701 -5.514
RightToes  0.00048216 0.542163 -0.142577
Spine  74.7944 -5.03725 6.17677
Spine1  5.35074 0.562493 -5.25692
HEad  -50.1106 -4.62152 4.81807
LeftShoulder1  6.56122 -26.8209 -14.5846
LeftArm  -102.041 -64.2962 29.2888
LeftForeArm  7.7381 -24.48 -4.83405
LeftHand  -0.25398 0.0180481 5.50724
RightShoulder  1.68645 12.782 2.2083
RightArm  -85.8197 61.4475 -16.7346
RightForeArm  -12.4757 24.1953 5.7877
RightHand  0.0644414 7.3549 0.112326
LeftUpLeg  -73.3456 16.5564 -23.3069
LeftLeg  40.6813 2.48756 2.67864
LeftFoot  -7.96911 -0.266275 10.6446
LeftToes  1.06244e-005 4.65854e-005 -8.18505e-006
317
root  69.0519 36.1493 -29.3601 36.685 3.36633 -0.380981
RightUpLeg  -70.4579 -12.0808 12.0678
RightLeg  40.9399 -6.50819 -6.30484
RightFoot  -5.6935 0.234219 -5.52414
RightToes  0.00048216 0.542163 -0.142577
Spine  74.5121 -5.04061 6.29501
Spine1  5.51188 0.643909 -5.06778
HEad  -49.8309 -4.89525 4.6497
LeftShoulder1  6.74897 -27.1349 -15.0098
LeftArm  -99.5534 -64.2707 26.8237
LeftForeArm  7.13692 -24.7755 -4.93063
LeftHand  -0.25398 0.0180481 5.50724
RightShoulder  1.76073 12.8699 2.66763
RightArm  -84.6565 61.2929 -16.2413
RightForeArm  -11.3058 24.0273 5.69486
RightHand  0.221242 7.13988 1.58358
LeftUpLeg  -71.7823 17.1576 -23.6037
LeftLeg  39.0566 2.3252 2.40235
LeftFoot  -7.24446 -0.350193 10.9755
LeftToes  1.06244e-005 4.65854e-005 -8.18505e-006
318
root  69.1326 36.3849 -29.5063 35.6646 2.98369 -0.360077
RightUpLeg  -68.6606 -12.3143 11.6911
RightLeg  39.0855 -6.31101 -5.74919
RightFoot  -4.79445 0.280208 -5.45728
RightToes  0.00048216 0.542163 -0.142577
Spine  73.9919 -4.96339 6.40642
Spine1  5.84959 0.761713 -4.754
HEad  -49.6876 -5.06684 4.30842
LeftShoulder1  7.01888 -27.2396 -15.8785
LeftArm  -96.6426 -64.5178 24.168
LeftForeArm  6.28447 -25.4021 -5.11513
LeftHand  -0.25398 0.0180481 5.50724
RightShoulder  1.78301 12.8882 2.80751
RightArm  -83.5631 61.2679 -15.2151
RightForeArm  -11.4053 24.1685 5.73152
RightHand  0.341661 6.77089 2.81438
LeftUpLeg  -70.0486 17.9022 -23.895
LeftLeg  37.1752 2.21075 2.17064
LeftFoot  -6.55519 -0.437431 11.3746
LeftToes  1.06244e-005 4.65854e-005 -8.18505e-006
319
root  69.2085 36.6243 -29.6642 34.6806 2.54016 -0.213745
RightUpLeg  -66.8897 -12.6159 11.2819
RightLeg  37.1052 -6.01602 -5.13445
RightFoot  -3.80973 0.347213 -5.65423
RightToes  0.00048216 0.542163 -0.142577
Spine  73.2203 -4.88562 6.44816
Spine1  6.15991 0.820508 -4.49439
HEad  -49.4972 -5.16736 4.039
LeftShoulder1  7.30847 -27.2771 -16.8638
LeftArm  -93.1224 -64.7532 20.7611
LeftForeArm  5.98285 -26.6725 -5.41894
LeftHand  -0.25398 0.0180481 5.50724
RightShoulder  1.83933 12.8865 3.19815
RightArm  -82.4761 61.4231 -14.2964
RightForeArm  -12.7119 24.5575 5.8809
RightHand  0.424089 5.74086 3.9998
LeftUpLeg  -68.2107 18.5492 -24.2082
LeftLeg  35.0852 2.12914 1.97169
LeftFoot  -5.8071 -0.529058 11.6307
LeftToes  1.06244e-005 4.65854e-005 -8.18505e-006
320
root  69.2715 36.8721 -29.8386 33.5849 2.037 0.0360565
RightUpLeg  -65.0379 -12.9473 10.813
RightLeg  35.1111 -5.68616 -4.54263
RightFoot  -2.69595 0.440548 -6.05815
RightToes  0.00048216 0.542163 -0.142577
Spine  72.4197 -4.75898 6.38759
Spine1  6.35367 0.802856 -4.26298
HEad  -49.1821 -5.28098 3.84514
LeftShoulder1  7.53564 -27.3768 -17.5717
LeftArm  -89.292 -64.7702 16.7289
LeftForeArm  5.98307 -27.9061 -5.70437
LeftHand  -0.25398 0.0180481 5.50724
RightShoulder  1.89872 12.8301 3.65368
RightArm  -80.9228 61.7927 -13.4512
RightForeArm  -14.5071 24.5141 5.95469
RightHand  0.424493 4.70682 4.49512
LeftUpLeg  -66.1693 19.2125 -24.5021
LeftLeg  32.8247 2.01332 1.75564
LeftFoot  -4.90788 -0.633953 11.763
LeftToes  1.06244e-005 4.65854e-005 -8.18505e-006
321
root  69.3238 37.1227 -30.0322 32.2758 1.51152 0.213364
RightUpLeg  -62.9641 -13.1832 10.3408
RightLeg  33.136 -5.46576 -4.084
RightFoot  -1.50804 0.53614 -6.34111
RightToes  0.00048216 0.542163 -0.142577
Spine  71.7148 -4.62155 6.31399
Spine1  6.35987 0.733467 -4.12545
HEad  -48.6764 -5.33187 3.63379
LeftShoulder1  7.71584 -27.4251 -18.1553
LeftArm  -85.2645 -64.7308 12.7253
LeftForeArm  5.40463 -28.1178 -5.78592
LeftHand  -0.25398 0.0180481 5.50724
RightShoulder  1.93141 12.8326 3.87753
RightArm  -78.3843 62.354 -12.0306
RightForeArm  -16.2351 23.5739 5.81204
RightHand  0.386755 4.37396 4.23785
LeftUpLeg  -63.9087 20.0178 -24.6548
LeftLeg  30.4507 1.95267 1.5889
LeftFoot  -3.98551 -0.749589 11.9871
LeftToes  1.06244e-005 4.65854e-005 -8.18505e-006
322
root  69.3732 37.3502 -30.2343 30.9126 1.01767 0.272827
RightUpLeg  -60.7836 -13.3655 9.92833
RightLeg  31.0985 -5.21688 -3.63462
RightFoot  -0.440941 0.60804 -6.39363
RightToes  0.00048216 0.542163 -0.142577
Spine  70.9372 -4.54866 6.30401
Spine1  6.13659 0.703824 -4.1978
HEad  -47.9135 -5.28049 3.38301
LeftShoulder1  8.0411 -27.4398 -19.2676
LeftArm  -80.815 -64.7458 9.39897
LeftForeArm  4.17226 -27.0564 -5.60429
LeftHand  -0.25398 0.0180481 5.50724
RightShoulder  2.03179 13.1559 4.29728
RightArm  -74.795 62.9155 -10.2154
RightForeArm  -17.8586 21.9064 5.46924
RightHand  0.383594 4.45514 4.15764
LeftUpLeg  -61.6554 20.8314 -24.6345
LeftLeg  28.1393 2.03599 1.52338
LeftFoot  -3.19026 -0.865937 12.371
LeftToes  1.06244e-005 4.65854e-005 -8.18505e-006
323
root  69.4224 37.5465 -30.4329 29.6483 0.551926 0.299911
RightUpLeg  -58.7708 -13.6097 9.64496
RightLeg  29.1612 -4.82626 -3.14976
RightFoot  0.513124 0.657421 -6.28734
RightToes  0.00048216 0.542163 -0.142577
Spine  70.0183 -4.49343 6.30475
Spine1  5.91793 0.747616 -4.36059
HEad  -47.1006 -5.16481 3.08697
LeftShoulder1  8.46914 -27.4205 -20.7597
LeftArm  -76.4475 -64.7251 7.01057
LeftForeArm  3.07232 -25.2756 -5.25877
LeftHand  -0.25398 0.0180481 5.50724
RightShoulder  2.1939 13.6594 4.95695
RightArm  -70.9658 63.3424 -8.46252
RightForeArm  -19.15 20.0693 5.10246
RightHand  0.419252 4.51234 4.54388
LeftUpLeg  -59.5962 21.534 -24.513
LeftLeg  26.0456 2.17537 1.49647
LeftFoot  -2.45416 -0.97806 12.7205
LeftToes  1.06244e-005 4.65854e-005 -8.18505e-006
